<svg xmlns="http://www.w3.org/2000/svg" version="1.1" xmlns:xlink="http://www.w3.org/1999/xlink" width="1500" height="336" viewBox="0 0 1500 336"><svg xml:space="preserve" width="1500" height="336" data-version="2" data-id="lg_tYekBBPEiiHPQjhms0" viewBox="0 0 541 336" x="0" y="0"><rect width="100%" height="100%" fill="transparent"></rect><path fill="#fff" d="m233.343 318.125-89.32-272.83-88.91 272.83v-.4q-2.44 6.09-6.7 9.95-4.26 3.85-10.35 3.85-3.25 0-6.3-.61-3.04-.61-6.29-1.42h.41q-23.15-7.31-17.05-25.98l92.56-281.36q2.03-6.5 7.11-10.96 5.07-4.47 11.98-5.28 6.9-1.22 13.39-1.83 6.5-.61 10.15-.61 3.66 0 10.15.61 6.5.61 13.4 1.42 5.69.82 11.17 6.09 5.48 5.28 8.32 10.56 22.73 69.83 46.08 140.68 23.35 70.85 46.08 140.68 5.69 18.67-17.05 25.98-3.25.81-5.89 1.42-2.64.61-5.89.61-5.68 0-10.35-3.85-4.67-3.86-6.7-9.95zm-58.87-87.69q0 12.99-9.13 22.13-9.14 9.13-22.13 9.13-12.99 0-21.92-9.13-8.93-9.14-8.93-22.13 0-12.99 8.93-22.13 8.93-9.13 21.92-9.13 12.99 0 22.13 9.13 9.13 9.14 9.13 22.13"></path><rect width="276.99" height="328.05" x="-138.49" y="-164.03" fill="none" rx="0" ry="0" transform="translate(144.39 168)"></rect><path fill="#fff" d="M403.863 287.275h55.22q15.02 0 21.11-8.53 6.09-8.52 6.09-19.08V73.715q0-10.15-6.09-18.67-6.09-8.53-21.11-8.53h-95l-.41 264.71q0 8.93-6.9 14.21-6.9 5.28-17.05 5.28-23.96 0-23.96-19.49V29.865q0-14.61 7.51-19.48 7.51-4.88 18.07-4.88h127.89q10.55 0 21.92 4.47 11.37 4.47 21.93 11.37h-.41q10.56 7.71 16.24 20.1 5.69 12.38 5.69 28.62v192.85q0 32.88-21.93 49.12-10.55 7.72-21.72 11.98-11.17 4.26-21.72 4.26h-68.21q-6.9 0-10.76-5.68-3.85-5.68-3.85-15.02 0-20.3 17.45-20.3"></path><rect width="218.84" height="325.21" x="-109.42" y="-162.6" fill="none" rx="0" ry="0" transform="translate(425.68 168.61)"></rect></svg></svg>