<?xml version="1.0" encoding="UTF-8"?>
<svg version="1.1" xmlns="http://www.w3.org/2000/svg" width="500" height="500">
<path d="M0 0 C0.66832352 -0.00175232 1.33664703 -0.00350464 2.02522278 -0.00531006 C4.24551961 -0.009729 6.46573744 -0.00678979 8.68603516 -0.00341797 C10.22441625 -0.00409116 11.76279725 -0.00506131 13.30117798 -0.00631714 C16.53103647 -0.0077943 19.76086736 -0.00563958 22.99072266 -0.00097656 C27.13252659 0.00471119 31.27426559 0.0014479 35.41606712 -0.00454903 C38.59533172 -0.00816231 41.77458092 -0.00701235 44.95384598 -0.00442123 C46.48088209 -0.0037536 48.00791959 -0.00457471 49.53495407 -0.00690079 C51.67047575 -0.00943881 53.80589239 -0.00557003 55.94140625 0 C57.1575058 0.00079559 58.37360535 0.00159119 59.6265564 0.00241089 C62.60009766 0.12939453 62.60009766 0.12939453 65.60009766 1.12939453 C67.91037972 1.41853764 70.22335838 1.68634902 72.53759766 1.94189453 C86.88228202 3.72241071 99.95853655 9.14192465 110.60009766 19.12939453 C110.60009766 19.78939453 110.60009766 20.44939453 110.60009766 21.12939453 C111.26009766 21.12939453 111.92009766 21.12939453 112.60009766 21.12939453 C123.45991565 33.9418399 128.45151014 50.50673977 127.38525391 67.17626953 C126.21786029 80.95276942 122.45821365 94.19620351 113.60009766 105.12939453 C112.94009766 105.12939453 112.28009766 105.12939453 111.60009766 105.12939453 C111.54982422 105.69658203 111.49955078 106.26376953 111.44775391 106.84814453 C109.27922458 112.6841866 100.02843235 117.55171318 94.66259766 120.44189453 C86.65284621 124.03643463 78.38968988 126.23753957 69.67626953 127.23217773 C68.93840462 127.31703336 68.2005397 127.40188898 67.44031525 127.48931599 C59.73291825 128.31341578 52.06361927 128.40235693 44.31884766 128.35986328 C42.8433842 128.35866632 41.36791997 128.3582194 39.89245605 128.35847473 C36.84394363 128.35693178 33.79555233 128.34880115 30.74707031 128.33520508 C26.83420435 128.31797415 22.92146732 128.31439875 19.00856781 128.31515026 C15.98210412 128.31487947 12.95566878 128.30941696 9.92921448 128.30214882 C8.48426018 128.29896644 7.0393027 128.29699575 5.59434509 128.29625511 C3.59429769 128.29410069 1.59426225 128.28457691 -0.40576172 128.2746582 C-1.54251343 128.27084641 -2.67926514 128.26703461 -3.85046387 128.2631073 C-6.39990234 128.12939453 -6.39990234 128.12939453 -7.39990234 127.12939453 C-7.54105396 124.45880602 -7.44237342 121.80507215 -7.39990234 119.12939453 C-6.41248047 119.06880859 -5.42505859 119.00822266 -4.40771484 118.94580078 C-3.12638672 118.86201172 -1.84505859 118.77822266 -0.52490234 118.69189453 C0.75126953 118.61068359 2.02744141 118.52947266 3.34228516 118.44580078 C6.48309918 118.33733426 6.48309918 118.33733426 8.60009766 117.12939453 C9.42963605 105.25209579 9.74971201 93.44381342 9.73291016 81.53955078 C9.73358642 79.81660448 9.73455911 78.09365826 9.73580933 76.37071228 C9.73726838 72.79506504 9.73518841 69.21944309 9.73046875 65.64379883 C9.72474201 61.08613378 9.72808042 56.52852726 9.73404121 51.9708643 C9.73766975 48.42676865 9.73649825 44.8826867 9.73391342 41.33859062 C9.73325206 39.65824819 9.73404452 37.97790447 9.73639297 36.29756355 C9.74562243 27.85055069 9.65970753 19.52577683 8.60009766 11.12939453 C7.69646484 11.06880859 6.79283203 11.00822266 5.86181641 10.94580078 C4.68232422 10.86201172 3.50283203 10.77822266 2.28759766 10.69189453 C1.11583984 10.61068359 -0.05591797 10.52947266 -1.26318359 10.44580078 C-4.39990234 10.12939453 -4.39990234 10.12939453 -7.39990234 9.12939453 C-7.49755859 2.97705078 -7.49755859 2.97705078 -7.39990234 1.12939453 C-5.54471721 -0.7257906 -2.47854539 0.00162363 0 0 Z M36.60009766 11.12939453 C33.96499461 15.08204909 34.30477061 18.49083369 34.30957031 23.07958984 C34.30285309 23.99537308 34.29613586 24.91115631 34.28921509 25.85469055 C34.27018301 28.88902177 34.26630791 31.9231323 34.26416016 34.95751953 C34.2577346 37.06638684 34.25100643 39.17525324 34.24398804 41.28411865 C34.23200135 45.70929022 34.22830852 50.13438365 34.22949219 54.55957031 C34.22969517 60.22342944 34.20242063 65.88678562 34.16794777 71.55052567 C34.14567985 75.90863331 34.14165466 80.26662004 34.14271164 84.62477875 C34.14035446 86.71232584 34.13152439 88.7998762 34.11604691 90.88736725 C34.09639457 93.81247324 34.10222283 96.73649671 34.11425781 99.66162109 C34.1030188 100.52006119 34.09177979 101.37850128 34.0802002 102.26295471 C34.14029022 108.02651156 35.25502744 111.39993873 38.60009766 116.12939453 C43.08137084 119.25039472 47.21997844 119.56766604 52.53759766 119.44189453 C53.55370117 119.44672852 53.55370117 119.44672852 54.59033203 119.45166016 C62.25589615 119.37081528 68.37862352 116.971289 75.03759766 113.50439453 C75.67375 113.17955078 76.30990234 112.85470703 76.96533203 112.52001953 C78.5130971 111.728681 80.05701635 110.92982783 81.60009766 110.12939453 C81.60009766 109.46939453 81.60009766 108.80939453 81.60009766 108.12939453 C82.26009766 108.12939453 82.92009766 108.12939453 83.60009766 108.12939453 C83.60009766 107.46939453 83.60009766 106.80939453 83.60009766 106.12939453 C84.21884766 105.90251953 84.83759766 105.67564453 85.47509766 105.44189453 C88.21419974 103.75009618 88.65034238 102.13695292 89.60009766 99.12939453 C90.26009766 99.12939453 90.92009766 99.12939453 91.60009766 99.12939453 C92.73574843 96.65464753 93.85857873 94.17526301 94.97509766 91.69189453 C95.45076172 90.66032227 95.45076172 90.66032227 95.93603516 89.60791016 C99.84499209 80.85347537 100.9457226 72.73850384 100.91259766 63.19189453 C100.92871094 62.26699219 100.94482422 61.34208984 100.96142578 60.38916016 C100.97155482 45.93502791 94.9023783 32.70025259 84.95166016 22.31689453 C73.96052367 12.09258152 59.74221511 7.53968524 44.83056641 7.87158203 C41.59162687 8.24596033 39.28548907 9.31675533 36.60009766 11.12939453 Z " fill="#F2F1F1" transform="translate(253.39990234375,159.87060546875)"/>
<path d="M0 0 C3 1 3 1 3.91967773 2.74316406 C4.17177002 3.49307617 4.4238623 4.24298828 4.68359375 5.015625 C4.96912109 5.84763428 5.25464844 6.67964355 5.54882812 7.53686523 C5.84208984 8.43219971 6.13535156 9.32753418 6.4375 10.25 C6.74751953 11.166604 7.05753906 12.08320801 7.37695312 13.02758789 C9.32045455 18.81276418 11.15719286 24.62693714 12.91015625 30.47265625 C14.34931556 35.13058046 15.89108923 39.75174808 17.4375 44.375 C17.74155762 45.28467529 18.04561523 46.19435059 18.35888672 47.1315918 C19.69386439 51.11898757 21.03399597 55.10452645 22.38671875 59.0859375 C24.53381885 65.43918638 26.53690861 71.80259798 28.375 78.25 C31.29465377 88.44406532 34.99485083 98.36678739 38.87792969 108.22998047 C41 113.68442263 41 113.68442263 41 117 C41.66 117 42.32 117 43 117 C45.125 118.875 45.125 118.875 47 121 C47 121.66 47 122.32 47 123 C47.85464844 123.06058594 48.70929688 123.12117188 49.58984375 123.18359375 C50.69457031 123.26738281 51.79929687 123.35117187 52.9375 123.4375 C54.59072266 123.55931641 54.59072266 123.55931641 56.27734375 123.68359375 C59 124 59 124 60 125 C60.25 127.9375 60.25 127.9375 60 131 C56.73229392 133.17847072 55.79306293 133.25204976 52.00952148 133.25878906 C50.99514511 133.26509338 49.98076874 133.27139771 48.93565369 133.27789307 C47.84184891 133.2738446 46.74804413 133.26979614 45.62109375 133.265625 C43.9365786 133.26849518 43.9365786 133.26849518 42.21803284 133.27142334 C39.84335099 133.27278487 37.4686617 133.26909069 35.09399414 133.26074219 C31.44856147 133.2500325 27.80362052 133.26064397 24.15820312 133.2734375 C21.85416557 133.2721161 19.55012833 133.2695541 17.24609375 133.265625 C15.60235023 133.27169769 15.60235023 133.27169769 13.92539978 133.27789307 C12.40856346 133.26843658 12.40856346 133.26843658 10.86108398 133.25878906 C9.9685643 133.25719788 9.07604462 133.25560669 8.15647888 133.25396729 C6 133 6 133 4 131 C3.8125 127.9375 3.8125 127.9375 4 125 C5.58272601 123.41727399 7.38034003 123.65264253 9.5625 123.4375 C10.38878906 123.35371094 11.21507812 123.26992188 12.06640625 123.18359375 C12.70449219 123.12300781 13.34257812 123.06242187 14 123 C15.23125377 119.46968402 14.75227673 117.28232212 13.671875 113.74609375 C13.21361328 112.2156543 13.21361328 112.2156543 12.74609375 110.65429688 C12.41738281 109.59275391 12.08867187 108.53121094 11.75 107.4375 C11.1188508 105.35314925 10.48863737 103.26851491 9.859375 101.18359375 C9.57545898 100.26118896 9.29154297 99.33878418 8.99902344 98.38842773 C7.59126879 93.61369001 6.30978284 88.80253708 5 84 C-8.2 84 -21.4 84 -35 84 C-35.66 86.97 -36.32 89.94 -37 93 C-37.53697019 94.7428165 -38.10620577 96.47649988 -38.7265625 98.19140625 C-39.0359375 99.07376953 -39.3453125 99.95613281 -39.6640625 100.86523438 C-40.30680553 102.66935658 -40.9552869 104.4714443 -41.609375 106.27148438 C-43.52080104 111.76081083 -44.46662962 116.18046201 -44 122 C-42.20160542 123.79839458 -39.43462438 123.33922292 -37 123.5 C-31.11111111 123.88888889 -31.11111111 123.88888889 -30 125 C-29.95907063 127.33297433 -29.95758277 129.66705225 -30 132 C-32.27810639 133.13905319 -33.5369637 133.1266699 -36.06665039 133.12939453 C-36.90414322 133.13254669 -37.74163605 133.13569885 -38.60450745 133.13894653 C-39.50974655 133.1369223 -40.41498566 133.13489807 -41.34765625 133.1328125 C-42.27468857 133.13376923 -43.20172089 133.13472595 -44.15684509 133.13571167 C-46.11799182 133.13639276 -48.0791408 133.1345434 -50.0402832 133.13037109 C-53.05359927 133.12501582 -56.06676668 133.13032158 -59.08007812 133.13671875 C-60.98177116 133.13605807 -62.88346411 133.13477713 -64.78515625 133.1328125 C-65.69241959 133.13483673 -66.59968292 133.13686096 -67.53443909 133.13894653 C-73.88504622 133.11495378 -73.88504622 133.11495378 -75 132 C-75.14115161 129.32941149 -75.04247107 126.67567762 -75 124 C-74.18015625 123.90203125 -73.3603125 123.8040625 -72.515625 123.703125 C-71.43796875 123.55359375 -70.3603125 123.4040625 -69.25 123.25 C-67.64898437 123.04117188 -67.64898437 123.04117188 -66.015625 122.828125 C-62.44876463 121.84862448 -61.38389229 120.78460353 -59 118 C-57.58383782 115.33172464 -57.58383782 115.33172464 -56.44921875 112.3359375 C-56.00151123 111.22259033 -55.55380371 110.10924316 -55.0925293 108.9621582 C-54.62886963 107.778396 -54.16520996 106.59463379 -53.6875 105.375 C-53.2025708 104.15965576 -52.7176416 102.94431152 -52.21801758 101.69213867 C-50.80109978 98.13228882 -49.39850437 94.56711709 -48 91 C-47.31259213 89.2590782 -46.62510405 87.51818807 -45.9375 85.77734375 C-44.26670637 81.52766724 -42.62615079 77.26693547 -41 73 C-40.76007324 72.37254883 -40.52014648 71.74509766 -40.27294922 71.09863281 C-36.45801539 61.10105503 -32.83488229 51.03576841 -29.24658203 40.95483398 C-27.51398756 36.10796065 -25.72896385 31.3227313 -23.72265625 26.58203125 C-22.28660576 23.04572152 -21.61281476 20.41965931 -22.0625 16.5625 C-22.16015625 14.0625 -22.16015625 14.0625 -22 12 C-19.35796556 9.44052913 -16.72490178 8.90371562 -13.25 7.6875 C-8.97139617 6.18552332 -5.6024748 3.80183968 -1.98046875 1.109375 C-1.32691406 0.74328125 -0.67335938 0.3771875 0 0 Z M-14 26 C-18.086503 36.55799993 -22.11315402 47.13384213 -25.875 57.8125 C-26.16060791 58.61655273 -26.44621582 59.42060547 -26.74047852 60.24902344 C-27.00916748 61.01891602 -27.27785645 61.78880859 -27.5546875 62.58203125 C-27.90249268 63.57553589 -27.90249268 63.57553589 -28.25732422 64.58911133 C-29.31383253 68.01876931 -30.12961254 71.51845015 -31 75 C-20.11 75 -9.22 75 2 75 C0.82471886 69.71123488 -0.3271381 64.60053097 -1.8046875 59.41796875 C-2.14113281 58.23783203 -2.47757813 57.05769531 -2.82421875 55.84179688 C-3.17097656 54.63587891 -3.51773438 53.42996094 -3.875 52.1875 C-4.21402344 50.99318359 -4.55304688 49.79886719 -4.90234375 48.56835938 C-7.07631976 40.97597548 -9.43554535 33.46951022 -12 26 C-12.66 26 -13.32 26 -14 26 Z " fill="#EFEEEE" transform="translate(183,155)"/>
</svg>
