<?xml version="1.0" encoding="UTF-8"?>
<svg xmlns="http://www.w3.org/2000/svg" xmlns:xlink="http://www.w3.org/1999/xlink" width="3000px" height="672px" viewBox="0 0 3000 672" version="1.1">
<g id="surface1">
<path style=" stroke:none;fill-rule:nonzero;fill:rgb(100%,100%,100%);fill-opacity:1;" d="M 1425.6875 636.25 L 1247.046875 90.589844 L 1069.226562 636.25 L 1069.226562 635.449219 C 1065.972656 643.570312 1061.507812 650.203125 1055.824219 655.351562 C 1050.144531 660.484375 1043.246094 663.050781 1035.125 663.050781 C 1030.792969 663.050781 1026.59375 662.644531 1022.527344 661.828125 C 1018.472656 661.015625 1014.28125 660.070312 1009.945312 658.988281 L 1010.765625 658.988281 C 979.898438 649.242188 968.53125 631.921875 976.664062 607.03125 L 1161.785156 44.308594 C 1164.492188 35.644531 1169.234375 28.335938 1176.007812 22.390625 C 1182.765625 16.429688 1190.753906 12.910156 1199.964844 11.828125 C 1209.164062 10.203125 1218.09375 8.984375 1226.746094 8.171875 C 1235.414062 7.355469 1242.179688 6.949219 1247.046875 6.949219 C 1251.925781 6.949219 1258.691406 7.355469 1267.347656 8.171875 C 1276.011719 8.984375 1284.945312 9.929688 1294.144531 11.011719 C 1301.734375 12.101562 1309.179688 16.164062 1316.484375 23.191406 C 1323.792969 30.230469 1329.339844 37.269531 1333.125 44.308594 C 1363.433594 137.417969 1394.152344 231.203125 1425.285156 325.671875 C 1456.417969 420.136719 1487.140625 513.921875 1517.445312 607.03125 C 1525.03125 631.921875 1513.664062 649.242188 1483.347656 658.988281 C 1479.011719 660.070312 1475.085938 661.015625 1471.566406 661.828125 C 1468.046875 662.644531 1464.121094 663.050781 1459.785156 663.050781 C 1452.210938 663.050781 1445.3125 660.484375 1439.085938 655.351562 C 1432.859375 650.203125 1428.394531 643.570312 1425.6875 635.449219 Z M 1307.945312 460.871094 C 1307.945312 478.191406 1301.859375 492.941406 1289.6875 505.128906 C 1277.5 517.304688 1262.746094 523.390625 1245.425781 523.390625 C 1228.105469 523.390625 1213.492188 517.304688 1201.585938 505.128906 C 1189.679688 492.941406 1183.726562 478.191406 1183.726562 460.871094 C 1183.726562 443.550781 1189.679688 428.796875 1201.585938 416.609375 C 1213.492188 404.4375 1228.105469 398.351562 1245.425781 398.351562 C 1262.746094 398.351562 1277.5 404.4375 1289.6875 416.609375 C 1301.859375 428.796875 1307.945312 443.550781 1307.945312 460.871094 "/>
<path style=" stroke:none;fill-rule:nonzero;fill:rgb(100%,100%,100%);fill-opacity:1;" d="M 1766.726562 574.550781 L 1877.164062 574.550781 C 1897.191406 574.550781 1911.265625 568.863281 1919.386719 557.488281 C 1927.507812 546.128906 1931.566406 533.410156 1931.566406 519.328125 L 1931.566406 147.429688 C 1931.566406 133.898438 1927.507812 121.449219 1919.386719 110.089844 C 1911.265625 98.714844 1897.191406 93.03125 1877.164062 93.03125 L 1687.164062 93.03125 L 1686.347656 622.449219 C 1686.347656 634.355469 1681.746094 643.828125 1672.546875 650.871094 C 1663.347656 657.910156 1651.980469 661.429688 1638.445312 661.429688 C 1606.5 661.429688 1590.527344 648.4375 1590.527344 622.449219 L 1590.527344 59.730469 C 1590.527344 40.25 1595.53125 27.261719 1605.546875 20.769531 C 1615.558594 14.261719 1627.605469 11.011719 1641.6875 11.011719 L 1897.464844 11.011719 C 1911.53125 11.011719 1926.144531 13.988281 1941.304688 19.949219 C 1956.464844 25.910156 1971.085938 33.488281 1985.164062 42.691406 L 1984.347656 42.691406 C 1998.425781 52.96875 2009.253906 66.371094 2016.824219 82.890625 C 2024.414062 99.398438 2028.207031 118.476562 2028.207031 140.128906 L 2028.207031 525.828125 C 2028.207031 569.671875 2013.585938 602.417969 1984.347656 624.070312 C 1970.28125 634.363281 1955.800781 642.351562 1940.90625 648.03125 C 1926.011719 653.710938 1911.53125 656.550781 1897.464844 656.550781 L 1761.046875 656.550781 C 1751.847656 656.550781 1744.671875 652.761719 1739.527344 645.191406 C 1734.394531 637.617188 1731.824219 627.601562 1731.824219 615.148438 C 1731.824219 588.082031 1743.460938 574.550781 1766.726562 574.550781 "/>
</g>
</svg>
